:SAMPLES-PER-SECOND 24
:FULLY-SPECIFIED
:DEGREES
20
root  -5.53466 37.9274 39.8684 -170.882 8.10361 -171.588
RightUpLeg  -40.5671 11.203 2.19553
RightLeg  32.9538 -6.05278 -4.22767
RightFoot  -6.19327 -0.0404073 0.66898
RightToes  -2.08645e-008 3.77894e-005 6.81332e-007
Spine  15.7984 0.548492 -18.1725
Spine1  6.7345 -6.25759 19.212
HEad  -41.4133 -50.8318 26.9969
LeftShoulder1  7.862 -14.019 -38.7224
LeftArm  7.38388 -3.05423 -22.7476
LeftForeArm  80.2567 -79.8233 -75.4379
LeftHand  -0.793122 -1.91008 12.7901
RightShoulder  4.37655 6.94987 35.9484
RightArm  15.846 -0.264157 36.7469
RightForeArm  62.643 77.6158 49.7479
RightHand  -1.04166 7.49009 -9.71546
LeftUpLeg  -18.0274 -9.57033 2.15033
LeftLeg  35.8715 9.57445 7.7099
LeftFoot  -24.1373 0.530008 3.43756
LeftToes  1.24767e-006 1.47042e-008 1.32732e-009
21
root  -6.58312 38.3773 40.7566 -167.68 19.9376 -167.768
RightUpLeg  -45.3446 10.5863 5.92743
RightLeg  52.7051 -1.05722 -1.62948
RightFoot  -10.1247 -0.091912 2.50291
RightToes  -2.08645e-008 3.77894e-005 6.81332e-007
Spine  19.2877 1.39874 -18.7565
Spine1  3.54753 -6.17392 21.7671
HEad  -41.5977 -50.3929 28.6964
LeftShoulder1  7.57576 -13.7712 -37.7528
LeftArm  3.31996 -8.18478 -23.8361
LeftForeArm  85.1509 -79.984 -80.3893
LeftHand  -0.878716 -1.39861 15.158
RightShoulder  4.42729 7.03937 36.072
RightArm  18.4288 0.640836 36.2774
RightForeArm  61.1555 77.197 47.156
RightHand  -1.04713 7.32417 -9.87759
LeftUpLeg  -19.1835 3.75186 3.38334
LeftLeg  32.5678 9.46701 6.8217
LeftFoot  -22.453 0.527031 4.03085
LeftToes  1.24767e-006 1.47042e-008 1.32732e-009
22
root  -7.6838 38.8928 41.2543 -161.922 27.5492 -162.383
RightUpLeg  -51.2189 7.09732 6.82604
RightLeg  71.5085 -0.68945 -3.23333
RightFoot  -14.1385 -0.0957396 -0.00305355
RightToes  -2.08645e-008 3.77894e-005 6.81332e-007
Spine  22.1984 0.797531 -18.9622
Spine1  -0.0160276 -7.68679 26.615
HEad  -40.7166 -49.2637 30.3467
LeftShoulder1  7.31226 -13.5899 -36.7113
LeftArm  2.79663 -14.3811 -26.824
LeftForeArm  99.0845 -80.2104 -92.3796
LeftHand  -0.888996 -1.24215 15.6801
RightShoulder  4.36096 7.00298 35.5956
RightArm  21.9812 1.12453 35.2796
RightForeArm  65.7305 77.8339 50.0311
RightHand  -0.917723 7.79869 -8.41607
LeftUpLeg  -21.4799 12.5654 5.33928
LeftLeg  28.9626 9.15133 5.78559
LeftFoot  -20.2184 0.461925 4.38382
LeftToes  1.24767e-006 1.47042e-008 1.32732e-009
23
root  -8.82096 39.4116 41.3177 -154.146 34.7275 -154.454
RightUpLeg  -56.6351 3.53613 4.68909
RightLeg  86.8614 0.0992694 -5.78229
RightFoot  -17.2101 -0.1446 -0.583522
RightToes  -2.08645e-008 3.77894e-005 6.81332e-007
Spine  23.7687 0.491126 -17.3707
Spine1  -2.18744 -8.18258 30.5939
HEad  -40.4365 -49.0416 31.8269
LeftShoulder1  6.94083 -13.4389 -34.9393
LeftArm  7.67673 -23.5661 -31.4417
LeftForeArm  103.175 -80.2862 -94.4348
LeftHand  -0.907568 -1.44211 15.5481
RightShoulder  4.08298 6.74958 33.9304
RightArm  25.2515 1.58681 34.2899
RightForeArm  74.0613 78.9394 57.1367
RightHand  -0.966706 8.04897 -8.68859
LeftUpLeg  -22.6883 18.8757 8.011
LeftLeg  25.1512 12.076 6.43762
LeftFoot  -18.1844 0.366355 4.29513
LeftToes  1.24767e-006 1.47042e-008 1.32732e-009
24
root  -9.86943 39.8314 40.906 -143.74 42.484 -142.541
RightUpLeg  -60.726 1.25667 -1.22949
RightLeg  98.7426 0.87217 -3.03784
RightFoot  -19.3259 -0.164722 -0.464008
RightToes  -2.08645e-008 3.77894e-005 6.81332e-007
Spine  25.2066 0.550417 -13.8836
Spine1  -3.56945 -7.53156 32.6102
HEad  -39.2623 -48.7884 31.1355
LeftShoulder1  6.32456 -13.0602 -32.1709
LeftArm  13.6201 -30.5188 -36.9159
LeftForeArm  108.589 -80.2985 -98.2248
LeftHand  -0.949196 -1.9742 15.1212
RightShoulder  3.75473 6.51211 31.5995
RightArm  30.1416 3.96121 33.8204
RightForeArm  82.3081 79.7472 64.755
RightHand  -1.04344 7.99838 -9.38269
LeftUpLeg  -21.4628 26.723 11.6557
LeftLeg  21.1672 15.997 7.16315
LeftFoot  -16.713 0.318916 4.63914
LeftToes  1.24767e-006 1.47042e-008 1.32732e-009
25
root  -10.6511 40.2666 40.0455 -129.546 48.0592 -127.552
RightUpLeg  -64.1231 -2.24737 -10.0482
RightLeg  104.212 1.35139 -3.36782
RightFoot  -21.9289 -0.192329 -0.479485
RightToes  -2.08645e-008 3.77894e-005 6.81332e-007
Spine  25.8452 -0.269156 -8.65673
Spine1  -5.06259 -6.9085 32.9806
HEad  -37.0557 -48.6509 28.6417
LeftShoulder1  5.79692 -12.6665 -29.8245
LeftArm  17.5655 -31.5729 -41.0355
LeftForeArm  126.008 -79.6632 -113.502
LeftHand  -0.879898 -2.52942 13.0905
RightShoulder  3.43533 6.30162 29.1012
RightArm  35.9414 6.96466 34.0294
RightForeArm  91.6833 80.3504 72.6427
RightHand  -0.847583 8.11771 -7.62981
LeftUpLeg  -17.8704 30.218 16.8047
LeftLeg  15.9879 23.0545 6.64781
LeftFoot  -14.0197 0.22367 5.98843
LeftToes  1.24767e-006 1.47042e-008 1.32732e-009
